<?xml version="1.0" encoding="UTF-8" standalone="no"?>
<!DOCTYPE svg PUBLIC "-//W3C//DTD SVG 1.1//EN"
 "http://www.w3.org/Graphics/SVG/1.1/DTD/svg11.dtd">
<!-- Generated by graphviz version 2.36.0 (20140111.2315)
 -->
<!-- Title: G Pages: 1 -->
<svg width="618pt" height="1306pt"
 viewBox="0.00 0.00 618.00 1306.00" xmlns="http://www.w3.org/2000/svg" xmlns:xlink="http://www.w3.org/1999/xlink">
<g id="graph0" class="graph" transform="scale(1 1) rotate(0) translate(4 1302)">
<title>G</title>
<polygon fill="white" stroke="none" points="-4,4 -4,-1302 614,-1302 614,4 -4,4"/>
<g id="clust1" class="cluster"><title>cluster_Global</title>
<path fill="none" stroke="gray" d="M20,-44C20,-44 590,-44 590,-44 596,-44 602,-50 602,-56 602,-56 602,-1278 602,-1278 602,-1284 596,-1290 590,-1290 590,-1290 20,-1290 20,-1290 14,-1290 8,-1284 8,-1278 8,-1278 8,-56 8,-56 8,-50 14,-44 20,-44"/>
<text text-anchor="middle" x="305" y="-1277.2" font-family="Times,serif" font-size="11.00" fill="gray">Global</text>
</g>
<g id="clust2" class="cluster"><title>cluster_\Gnre</title>
<path fill="none" stroke="gray" d="M28,-52C28,-52 582,-52 582,-52 588,-52 594,-58 594,-64 594,-64 594,-1250 594,-1250 594,-1256 588,-1262 582,-1262 582,-1262 28,-1262 28,-1262 22,-1262 16,-1256 16,-1250 16,-1250 16,-64 16,-64 16,-58 22,-52 28,-52"/>
<text text-anchor="middle" x="305" y="-1249.2" font-family="Times,serif" font-size="11.00" fill="gray">Gnre</text>
</g>
<g id="clust3" class="cluster"><title>cluster_\Gnre\Render</title>
<path fill="none" stroke="gray" d="M437,-1054C437,-1054 513,-1054 513,-1054 519,-1054 525,-1060 525,-1066 525,-1066 525,-1222 525,-1222 525,-1228 519,-1234 513,-1234 513,-1234 437,-1234 437,-1234 431,-1234 425,-1228 425,-1222 425,-1222 425,-1066 425,-1066 425,-1060 431,-1054 437,-1054"/>
<text text-anchor="middle" x="475" y="-1221.2" font-family="Times,serif" font-size="11.00" fill="gray">Render</text>
</g>
<g id="clust4" class="cluster"><title>cluster_\Gnre\Configuration</title>
<path fill="none" stroke="gray" d="M200,-812C200,-812 571,-812 571,-812 577,-812 583,-818 583,-824 583,-824 583,-1034 583,-1034 583,-1040 577,-1046 571,-1046 571,-1046 200,-1046 200,-1046 194,-1046 188,-1040 188,-1034 188,-1034 188,-824 188,-824 188,-818 194,-812 200,-812"/>
<text text-anchor="middle" x="385.5" y="-1033.2" font-family="Times,serif" font-size="11.00" fill="gray">Configuration</text>
</g>
<g id="clust5" class="cluster"><title>cluster_\Gnre\Sefaz</title>
<path fill="none" stroke="gray" d="M36,-570C36,-570 507,-570 507,-570 513,-570 519,-576 519,-582 519,-582 519,-792 519,-792 519,-798 513,-804 507,-804 507,-804 36,-804 36,-804 30,-804 24,-798 24,-792 24,-792 24,-582 24,-582 24,-576 30,-570 36,-570"/>
<text text-anchor="middle" x="271.5" y="-791.2" font-family="Times,serif" font-size="11.00" fill="gray">Sefaz</text>
</g>
<g id="clust6" class="cluster"><title>cluster_\Gnre\Exception</title>
<path fill="none" stroke="gray" d="M376,-274C376,-274 574,-274 574,-274 580,-274 586,-280 586,-286 586,-286 586,-550 586,-550 586,-556 580,-562 574,-562 574,-562 376,-562 376,-562 370,-562 364,-556 364,-550 364,-550 364,-286 364,-286 364,-280 370,-274 376,-274"/>
<text text-anchor="middle" x="475" y="-549.2" font-family="Times,serif" font-size="11.00" fill="gray">Exception</text>
</g>
<g id="clust7" class="cluster"><title>cluster_\Gnre\Webservice</title>
<path fill="none" stroke="gray" d="M413,-140C413,-140 537,-140 537,-140 543,-140 549,-146 549,-152 549,-152 549,-254 549,-254 549,-260 543,-266 537,-266 537,-266 413,-266 413,-266 407,-266 401,-260 401,-254 401,-254 401,-152 401,-152 401,-146 407,-140 413,-140"/>
<text text-anchor="middle" x="475" y="-253.2" font-family="Times,serif" font-size="11.00" fill="gray">Webservice</text>
</g>
<g id="clust8" class="cluster"><title>cluster_\Gnre\Parser</title>
<path fill="none" stroke="gray" d="M210,-60C210,-60 520,-60 520,-60 526,-60 532,-66 532,-72 532,-72 532,-120 532,-120 532,-126 526,-132 520,-132 520,-132 210,-132 210,-132 204,-132 198,-126 198,-120 198,-120 198,-72 198,-72 198,-66 204,-60 210,-60"/>
<text text-anchor="middle" x="365" y="-119.2" font-family="Times,serif" font-size="11.00" fill="gray">Parser</text>
</g>
<!-- \\Gnre\\Render\\Barcode128 -->
<g id="node1" class="node"><title>\\Gnre\\Render\\Barcode128</title>
<polygon fill="none" stroke="black" points="517,-1206 433,-1206 433,-1170 517,-1170 517,-1206"/>
<text text-anchor="middle" x="475" y="-1185.2" font-family="Courier,monospace" font-size="11.00">Barcode128</text>
</g>
<!-- \\Gnre\\Render\\Html -->
<g id="node2" class="node"><title>\\Gnre\\Render\\Html</title>
<polygon fill="none" stroke="black" points="502,-1152 448,-1152 448,-1116 502,-1116 502,-1152"/>
<text text-anchor="middle" x="475" y="-1131.2" font-family="Courier,monospace" font-size="11.00">Html</text>
</g>
<!-- \\Gnre\\Render\\Pdf -->
<g id="node3" class="node"><title>\\Gnre\\Render\\Pdf</title>
<polygon fill="none" stroke="black" points="502,-1098 448,-1098 448,-1062 502,-1062 502,-1098"/>
<text text-anchor="middle" x="475" y="-1077.2" font-family="Courier,monospace" font-size="11.00">Pdf</text>
</g>
<!-- \\Gnre\\Configuration\\CertificatePfx -->
<g id="node4" class="node"><title>\\Gnre\\Configuration\\CertificatePfx</title>
<polygon fill="none" stroke="black" points="530.5,-1018 419.5,-1018 419.5,-982 530.5,-982 530.5,-1018"/>
<text text-anchor="middle" x="475" y="-997.2" font-family="Courier,monospace" font-size="11.00">CertificatePfx</text>
</g>
<!-- \\Gnre\\Configuration\\CertificatePfxFileOperation -->
<g id="node5" class="node"><title>\\Gnre\\Configuration\\CertificatePfxFileOperation</title>
<polygon fill="none" stroke="black" points="574.5,-964 375.5,-964 375.5,-928 574.5,-928 574.5,-964"/>
<text text-anchor="middle" x="475" y="-943.2" font-family="Courier,monospace" font-size="11.00">CertificatePfxFileOperation</text>
</g>
<!-- \\Gnre\\Configuration\\FileOperation -->
<g id="node8" class="node"><title>\\Gnre\\Configuration\\FileOperation</title>
<polygon fill="none" stroke="black" points="300,-964 196,-964 196,-928 300,-928 300,-964"/>
<text text-anchor="start" x="214" y="-949.2" font-family="Courier,monospace" font-size="11.00">«abstract»</text>
<text text-anchor="start" x="204" y="-937.2" font-family="Courier,monospace" font-size="11.00">FileOperation</text>
</g>
<!-- \\Gnre\\Configuration\\CertificatePfxFileOperation&#45;&gt;\\Gnre\\Configuration\\FileOperation -->
<g id="edge7" class="edge"><title>\\Gnre\\Configuration\\CertificatePfxFileOperation&#45;&gt;\\Gnre\\Configuration\\FileOperation</title>
<path fill="none" stroke="black" d="M375.312,-946C353.191,-946 330.347,-946 310.271,-946"/>
<polygon fill="none" stroke="black" points="310.043,-942.5 300.043,-946 310.043,-949.5 310.043,-942.5"/>
</g>
<!-- \\Gnre\\Configuration\\FilePrefix -->
<g id="node6" class="node"><title>\\Gnre\\Configuration\\FilePrefix</title>
<polygon fill="none" stroke="black" points="517,-910 433,-910 433,-874 517,-874 517,-910"/>
<text text-anchor="middle" x="475" y="-889.2" font-family="Courier,monospace" font-size="11.00">FilePrefix</text>
</g>
<!-- \\Gnre\\Configuration\\Setup -->
<g id="node7" class="node"><title>\\Gnre\\Configuration\\Setup</title>
<polygon fill="none" stroke="black" points="517,-856 433,-856 433,-820 517,-820 517,-856"/>
<text text-anchor="start" x="441" y="-841.2" font-family="Courier,monospace" font-size="11.00">«abstract»</text>
<text text-anchor="start" x="458" y="-829.2" font-family="Courier,monospace" font-size="11.00">Setup</text>
</g>
<!-- \\Gnre\\Sefaz\\ConsultaGnre -->
<g id="node9" class="node"><title>\\Gnre\\Sefaz\\ConsultaGnre</title>
<polygon fill="none" stroke="black" points="297,-668 199,-668 199,-632 297,-632 297,-668"/>
<text text-anchor="start" x="214" y="-653.2" font-family="Courier,monospace" font-size="11.00">«abstract»</text>
<text text-anchor="start" x="207" y="-641.2" font-family="Courier,monospace" font-size="11.00">ConsultaGnre</text>
</g>
<!-- \\Gnre\\Sefaz\\ObjetoSefaz -->
<g id="node15" class="node"><title>\\Gnre\\Sefaz\\ObjetoSefaz</title>
<polygon fill="none" stroke="black" points="123.5,-695 32.5,-695 32.5,-659 123.5,-659 123.5,-695"/>
<text text-anchor="middle" x="78" y="-674.2" font-family="Courier,monospace" font-size="11.00">ObjetoSefaz</text>
</g>
<!-- \\Gnre\\Sefaz\\ConsultaGnre&#45;&gt;\\Gnre\\Sefaz\\ObjetoSefaz -->
<g id="edge3" class="edge"><title>\\Gnre\\Sefaz\\ConsultaGnre&#45;&gt;\\Gnre\\Sefaz\\ObjetoSefaz</title>
<path fill="none" stroke="black" stroke-dasharray="1,5" d="M198.858,-657.737C178.527,-661.005 154.745,-664.827 133.749,-668.201"/>
<polygon fill="none" stroke="black" points="133.011,-664.775 123.693,-669.817 134.122,-671.686 133.011,-664.775"/>
</g>
<!-- \\Gnre\\Sefaz\\Send -->
<g id="node10" class="node"><title>\\Gnre\\Sefaz\\Send</title>
<polygon fill="none" stroke="black" points="502,-776 448,-776 448,-740 502,-740 502,-776"/>
<text text-anchor="middle" x="475" y="-755.2" font-family="Courier,monospace" font-size="11.00">Send</text>
</g>
<!-- \\Gnre\\Sefaz\\Lote -->
<g id="node11" class="node"><title>\\Gnre\\Sefaz\\Lote</title>
<polygon fill="none" stroke="black" points="502,-722 448,-722 448,-686 502,-686 502,-722"/>
<text text-anchor="middle" x="475" y="-701.2" font-family="Courier,monospace" font-size="11.00">Lote</text>
</g>
<!-- \\Gnre\\Sefaz\\LoteGnre -->
<g id="node12" class="node"><title>\\Gnre\\Sefaz\\LoteGnre</title>
<polygon fill="none" stroke="black" points="290,-722 206,-722 206,-686 290,-686 290,-722"/>
<text text-anchor="start" x="214" y="-707.2" font-family="Courier,monospace" font-size="11.00">«abstract»</text>
<text text-anchor="start" x="220.5" y="-695.2" font-family="Courier,monospace" font-size="11.00">LoteGnre</text>
</g>
<!-- \\Gnre\\Sefaz\\Lote&#45;&gt;\\Gnre\\Sefaz\\LoteGnre -->
<g id="edge5" class="edge"><title>\\Gnre\\Sefaz\\Lote&#45;&gt;\\Gnre\\Sefaz\\LoteGnre</title>
<path fill="none" stroke="black" d="M447.749,-704C411.753,-704 346.316,-704 300.388,-704"/>
<polygon fill="none" stroke="black" points="300.324,-700.5 290.324,-704 300.324,-707.5 300.324,-700.5"/>
</g>
<!-- \\Gnre\\Sefaz\\LoteGnre&#45;&gt;\\Gnre\\Sefaz\\ObjetoSefaz -->
<g id="edge6" class="edge"><title>\\Gnre\\Sefaz\\LoteGnre&#45;&gt;\\Gnre\\Sefaz\\ObjetoSefaz</title>
<path fill="none" stroke="black" stroke-dasharray="1,5" d="M205.903,-697.395C184.156,-693.9 157.164,-689.562 133.672,-685.787"/>
<polygon fill="none" stroke="black" points="133.93,-682.283 123.502,-684.152 132.819,-689.195 133.93,-682.283"/>
</g>
<!-- \\Gnre\\Sefaz\\Consulta -->
<g id="node13" class="node"><title>\\Gnre\\Sefaz\\Consulta</title>
<polygon fill="none" stroke="black" points="510.5,-668 439.5,-668 439.5,-632 510.5,-632 510.5,-668"/>
<text text-anchor="middle" x="475" y="-647.2" font-family="Courier,monospace" font-size="11.00">Consulta</text>
</g>
<!-- \\Gnre\\Sefaz\\Consulta&#45;&gt;\\Gnre\\Sefaz\\ConsultaGnre -->
<g id="edge10" class="edge"><title>\\Gnre\\Sefaz\\Consulta&#45;&gt;\\Gnre\\Sefaz\\ConsultaGnre</title>
<path fill="none" stroke="black" d="M439.337,-650C404.148,-650 349.03,-650 307.145,-650"/>
<polygon fill="none" stroke="black" points="307.073,-646.5 297.073,-650 307.073,-653.5 307.073,-646.5"/>
</g>
<!-- \\Gnre\\Sefaz\\Guia -->
<g id="node14" class="node"><title>\\Gnre\\Sefaz\\Guia</title>
<polygon fill="none" stroke="black" points="502,-614 448,-614 448,-578 502,-578 502,-614"/>
<text text-anchor="middle" x="475" y="-593.2" font-family="Courier,monospace" font-size="11.00">Guia</text>
</g>
<!-- \\Gnre\\Exception\\CannotOpenCertificate -->
<g id="node16" class="node"><title>\\Gnre\\Exception\\CannotOpenCertificate</title>
<polygon fill="none" stroke="black" points="554,-372 396,-372 396,-336 554,-336 554,-372"/>
<text text-anchor="middle" x="475" y="-351.2" font-family="Courier,monospace" font-size="11.00">CannotOpenCertificate</text>
</g>
<!-- \\Exception -->
<g id="node25" class="node"><title>\\Exception</title>
<ellipse fill="none" stroke="black" cx="248" cy="-18" rx="48.9926" ry="18"/>
<text text-anchor="middle" x="248" y="-14.3" font-family="Times,serif" font-size="14.00" fill="gray">\Exception</text>
</g>
<!-- \\Gnre\\Exception\\CannotOpenCertificate&#45;&gt;\\Exception -->
<g id="edge1" class="edge"><title>\\Gnre\\Exception\\CannotOpenCertificate&#45;&gt;\\Exception</title>
<path fill="none" stroke="black" d="M395.858,-346.203C383.988,-341.998 372.791,-335.868 364,-327 276.875,-239.107 367.944,-159.439 300,-56 295.832,-49.6552 290.225,-43.9776 284.252,-39.0664"/>
<polygon fill="none" stroke="black" points="286.078,-36.0611 275.981,-32.8539 281.874,-41.6581 286.078,-36.0611"/>
</g>
<!-- \\Gnre\\Exception\\ConnectionFactoryUnavailable -->
<g id="node17" class="node"><title>\\Gnre\\Exception\\ConnectionFactoryUnavailable</title>
<polygon fill="none" stroke="black" points="578,-318 372,-318 372,-282 578,-282 578,-318"/>
<text text-anchor="middle" x="475" y="-297.2" font-family="Courier,monospace" font-size="11.00">ConnectionFactoryUnavailable</text>
</g>
<!-- \\Gnre\\Exception\\ConnectionFactoryUnavailable&#45;&gt;\\Exception -->
<g id="edge2" class="edge"><title>\\Gnre\\Exception\\ConnectionFactoryUnavailable&#45;&gt;\\Exception</title>
<path fill="none" stroke="black" d="M379.913,-281.903C374.133,-278.565 368.746,-274.632 364,-270 292.954,-200.663 356.913,-137.34 300,-56 295.648,-49.7802 289.955,-44.1604 283.956,-39.2671"/>
<polygon fill="none" stroke="black" points="285.781,-36.2604 275.682,-33.0564 281.578,-41.8588 285.781,-36.2604"/>
</g>
<!-- \\Gnre\\Exception\\UndefinedProperty -->
<g id="node18" class="node"><title>\\Gnre\\Exception\\UndefinedProperty</title>
<polygon fill="none" stroke="black" points="540.5,-534 409.5,-534 409.5,-498 540.5,-498 540.5,-534"/>
<text text-anchor="middle" x="475" y="-513.2" font-family="Courier,monospace" font-size="11.00">UndefinedProperty</text>
</g>
<!-- \\Gnre\\Exception\\UndefinedProperty&#45;&gt;\\Exception -->
<g id="edge4" class="edge"><title>\\Gnre\\Exception\\UndefinedProperty&#45;&gt;\\Exception</title>
<path fill="none" stroke="black" d="M409.394,-512.978C392.475,-509.068 375.714,-501.87 364,-489 233.054,-345.135 399.782,-222.995 300,-56 296.145,-49.5487 290.735,-43.8416 284.869,-38.9392"/>
<polygon fill="none" stroke="black" points="286.779,-35.9956 276.691,-32.7584 282.559,-41.5801 286.779,-35.9956"/>
</g>
<!-- \\Gnre\\Exception\\UnreachableFile -->
<g id="node19" class="node"><title>\\Gnre\\Exception\\UnreachableFile</title>
<polygon fill="none" stroke="black" points="534,-480 416,-480 416,-444 534,-444 534,-480"/>
<text text-anchor="middle" x="475" y="-459.2" font-family="Courier,monospace" font-size="11.00">UnreachableFile</text>
</g>
<!-- \\Gnre\\Exception\\UnreachableFile&#45;&gt;\\Exception -->
<g id="edge9" class="edge"><title>\\Gnre\\Exception\\UnreachableFile&#45;&gt;\\Exception</title>
<path fill="none" stroke="black" d="M415.866,-460.136C396.901,-456.604 377.318,-449.333 364,-435 247.72,-309.854 389.125,-201.737 300,-56 296.079,-49.5886 290.638,-43.9003 284.762,-39.0038"/>
<polygon fill="none" stroke="black" points="286.671,-36.0595 276.583,-32.824 282.452,-41.6447 286.671,-36.0595"/>
</g>
<!-- \\Gnre\\Exception\\UnableToWriteFile -->
<g id="node20" class="node"><title>\\Gnre\\Exception\\UnableToWriteFile</title>
<polygon fill="none" stroke="black" points="540.5,-426 409.5,-426 409.5,-390 540.5,-390 540.5,-426"/>
<text text-anchor="middle" x="475" y="-405.2" font-family="Courier,monospace" font-size="11.00">UnableToWriteFile</text>
</g>
<!-- \\Gnre\\Exception\\UnableToWriteFile&#45;&gt;\\Exception -->
<g id="edge11" class="edge"><title>\\Gnre\\Exception\\UnableToWriteFile&#45;&gt;\\Exception</title>
<path fill="none" stroke="black" d="M409.497,-404.548C392.682,-400.617 375.95,-393.516 364,-381 262.336,-274.521 378.504,-180.541 300,-56 295.952,-49.5782 290.4,-43.865 284.444,-38.9429"/>
<polygon fill="none" stroke="black" points="286.272,-35.9383 276.174,-32.7291 282.066,-41.5345 286.272,-35.9383"/>
</g>
<!-- \\Gnre\\Webservice\\ConnectionFactory -->
<g id="node21" class="node"><title>\\Gnre\\Webservice\\ConnectionFactory</title>
<polygon fill="none" stroke="black" points="540.5,-238 409.5,-238 409.5,-202 540.5,-202 540.5,-238"/>
<text text-anchor="middle" x="475" y="-217.2" font-family="Courier,monospace" font-size="11.00">ConnectionFactory</text>
</g>
<!-- \\Gnre\\Webservice\\Connection -->
<g id="node22" class="node"><title>\\Gnre\\Webservice\\Connection</title>
<polygon fill="none" stroke="black" points="517,-184 433,-184 433,-148 517,-148 517,-184"/>
<text text-anchor="middle" x="475" y="-163.2" font-family="Courier,monospace" font-size="11.00">Connection</text>
</g>
<!-- \\Gnre\\Parser\\SefazRetorno -->
<g id="node23" class="node"><title>\\Gnre\\Parser\\SefazRetorno</title>
<polygon fill="none" stroke="black" points="524,-104 426,-104 426,-68 524,-68 524,-104"/>
<text text-anchor="middle" x="475" y="-83.2" font-family="Courier,monospace" font-size="11.00">SefazRetorno</text>
</g>
<!-- \\Gnre\\Parser\\Rules -->
<g id="node24" class="node"><title>\\Gnre\\Parser\\Rules</title>
<polygon fill="none" stroke="black" points="290,-104 206,-104 206,-68 290,-68 290,-104"/>
<text text-anchor="start" x="214" y="-89.2" font-family="Courier,monospace" font-size="11.00">«abstract»</text>
<text text-anchor="start" x="231" y="-77.2" font-family="Courier,monospace" font-size="11.00">Rules</text>
</g>
<!-- \\Gnre\\Parser\\SefazRetorno&#45;&gt;\\Gnre\\Parser\\Rules -->
<g id="edge8" class="edge"><title>\\Gnre\\Parser\\SefazRetorno&#45;&gt;\\Gnre\\Parser\\Rules</title>
<path fill="none" stroke="black" d="M425.732,-86C388.789,-86 337.948,-86 300.278,-86"/>
<polygon fill="none" stroke="black" points="300.024,-82.5001 290.024,-86 300.024,-89.5001 300.024,-82.5001"/>
</g>
</g>
</svg>
